# xmcd
#
# Track frame offsets:
#	150
#	26928
#	42641
#	60731
#	75526
#	95776
#	110243
#	124958
#	145926
#	161771
#
# Disc length: 2457 seconds
#
# Revision: 1
# Processed by: cddbd v1.4PL0 Copyright (c) Steve Scherf et al.
# Submitted via: EasyCDDAExtractor 5.0.7
#
DISCID=9809970a
DTITLE="Big" Bill Morganfield - Nineteen Years Old (A Tribute to Muddy Waters)
DYEAR=1999
DGENRE=Blues
TTITLE0=Rock me
TTITLE1=I'm a fool
TTITLE2=She's nineteen years old
TTITLE3=Lonesome
TTITLE4=Mad love
TTITLE5=Why do people act like that
TTITLE6=Caldonia
TTITLE7=Walking blues
TTITLE8=Rollin' and tumblin'
TTITLE9=Child of mercy
EXTD=
EXTT0=
EXTT1=
EXTT2=
EXTT3=
EXTT4=
EXTT5=
EXTT6=
EXTT7=
EXTT8=
EXTT9=
PLAYORDER=
